# xmcd
#
# Track frame offsets: 
#        299
#        22646
#        37857
#        54682
#        67454
#        82405
#        102765
#        132285
#        149631
#        164905
#        182716
#        200167
#
# Disc length: 2910 seconds
#
# Revision: 0
# Processed by: cddbd v1.5.2PL0 Copyright (c) Steve Scherf et al.
# Submitted via: ExactAudioCopy v0.95b4
#
DISCID=bb0b5b0c
DTITLE=The Red Hotz - Feel The Burn
DYEAR=2007
DGENRE=Blues
TTITLE0=Crying Shame
TTITLE1=My Dream
TTITLE2=Southern Comfort
TTITLE3=Pour Your Heart Out
TTITLE4=Flood In The Basement
TTITLE5=Ocean Beach
TTITLE6=Ain't No Sunshine
TTITLE7=Transactions
TTITLE8=Headlights
TTITLE9=Needless To Say
TTITLE10=Kiss My Dimple
TTITLE11=See You
EXTD=
EXTT0=
EXTT1=
EXTT2=
EXTT3=
EXTT4=
EXTT5=
EXTT6=
EXTT7=
EXTT8=
EXTT9=
EXTT10=
EXTT11=
PLAYORDER=
